<svg width="1440" height="900" viewBox="0 0 1440 900" fill="none" xmlns="http://www.w3.org/2000/svg">
<rect width="1440" height="900" fill="url(#paint0_linear_2374:23854)"/>
<g opacity="0.2" filter="url(#filter0_f_2374:23854)">
<path d="M110.673 357.003H98.8594V368.817H110.673V357.003Z" fill="#0D83EB"/>
</g>
<g opacity="0.2" filter="url(#filter1_f_2374:23854)">
<path d="M296.739 789.186H284.926V801H296.739V789.186Z" fill="#0D83EB"/>
</g>
<path d="M271.141 234.928H263.266V242.804H271.141V234.928Z" fill="#0D83EB"/>
<path d="M271.141 517.472H263.266V525.348H271.141V517.472Z" fill="#0D83EB"/>
<path d="M161.864 162.077H157.926V166.015H161.864V162.077Z" fill="#0D83EB"/>
<g opacity="0.2" filter="url(#filter2_f_2374:23854)">
<path d="M1294.54 746.802H1282.2V759.134H1294.54V746.802Z" fill="#77587C"/>
</g>
<g filter="url(#filter3_f_2374:23854)">
<path d="M1060.05 482.031H1051.83V490.252H1060.05V482.031Z" fill="#77587C"/>
</g>
<g opacity="0.2" filter="url(#filter4_f_2374:23854)">
<path d="M1188.2 246.742H1175.87V259.074H1188.2V246.742Z" fill="#77587C"/>
</g>
<path d="M1105.16 650.376H1101.05V654.486H1105.16V650.376Z" fill="#77587C"/>
<path d="M1196.9 510.436H1188.68V518.657H1196.9V510.436Z" fill="#77587C"/>
<path d="M1212.32 115.807H1208.21V119.918H1212.32V115.807Z" fill="#77587C"/>
<g opacity="0.7">
<g opacity="0.2" filter="url(#filter5_f_2374:23854)">
<path d="M921.399 195.503H925.648V199.752H921.399V195.503Z" fill="#0D83EB"/>
</g>
<g opacity="0.2" filter="url(#filter6_f_2374:23854)">
<path d="M854.474 350.951H858.723V355.2H854.474V350.951Z" fill="#0D83EB"/>
</g>
<path d="M863.683 151.595H866.516V154.428H863.683V151.595Z" fill="#0D83EB"/>
<path d="M863.683 253.22H866.516V256.053H863.683V253.22Z" fill="#0D83EB"/>
<path d="M902.986 125.392H904.402V126.809H902.986V125.392Z" fill="#0D83EB"/>
<g opacity="0.2" filter="url(#filter7_f_2374:23854)">
<path d="M495.592 335.706H500.027V340.141H495.592V335.706Z" fill="#77587C"/>
</g>
<g filter="url(#filter8_f_2374:23854)">
<path d="M579.93 240.473H582.887V243.43H579.93V240.473Z" fill="#77587C"/>
</g>
<g opacity="0.2" filter="url(#filter9_f_2374:23854)">
<path d="M533.834 155.845H538.27V160.28H533.834V155.845Z" fill="#77587C"/>
</g>
<path d="M563.701 301.023H565.18V302.502H563.701V301.023Z" fill="#77587C"/>
<path d="M530.707 250.69H533.664V253.647H530.707V250.69Z" fill="#77587C"/>
<path d="M525.162 108.75H526.641V110.229H525.162V108.75Z" fill="#77587C"/>
<g opacity="0.2" filter="url(#filter10_f_2374:23854)">
<path d="M578.013 96.3719L575.363 94.0967L573.088 96.7462L575.738 99.0213L578.013 96.3719Z" fill="#0D83EB"/>
</g>
<g opacity="0.2" filter="url(#filter11_f_2374:23854)">
<path d="M536.505 229.133L533.855 226.858L531.58 229.507L534.23 231.783L536.505 229.133Z" fill="#0D83EB"/>
</g>
<path d="M637.512 99.8984L635.746 98.3817L634.229 100.148L635.996 101.665L637.512 99.8984Z" fill="#0D83EB"/>
<path d="M583.098 163.265L581.332 161.749L579.815 163.515L581.582 165.032L583.098 163.265Z" fill="#0D83EB"/>
<path d="M627.036 62.5144L626.152 61.756L625.394 62.6392L626.277 63.3976L627.036 62.5144Z" fill="#0D83EB"/>
<g opacity="0.2" filter="url(#filter12_f_2374:23854)">
<path d="M768.453 411.792L765.688 409.417L763.312 412.182L766.078 414.557L768.453 411.792Z" fill="#77587C"/>
</g>
<g filter="url(#filter13_f_2374:23854)">
<path d="M766.856 307.252L765.012 305.668L763.428 307.512L765.272 309.096L766.856 307.252Z" fill="#77587C"/>
</g>
<g opacity="0.2" filter="url(#filter14_f_2374:23854)">
<path d="M840.914 279.164L838.148 276.789L835.773 279.555L838.539 281.93L840.914 279.164Z" fill="#77587C"/>
</g>
<path d="M744.551 353.695L743.629 352.904L742.837 353.825L743.759 354.617L744.551 353.695Z" fill="#77587C"/>
<path d="M792.078 339.979L790.234 338.395L788.651 340.239L790.495 341.822L792.078 339.979Z" fill="#77587C"/>
<path d="M871.539 254.443L870.617 253.651L869.826 254.573L870.747 255.365L871.539 254.443Z" fill="#77587C"/>
</g>
<defs>
<filter id="filter0_f_2374:23854" x="90.8594" y="349.003" width="27.8125" height="27.8137" filterUnits="userSpaceOnUse" color-interpolation-filters="sRGB">
<feFlood flood-opacity="0" result="BackgroundImageFix"/>
<feBlend mode="normal" in="SourceGraphic" in2="BackgroundImageFix" result="shape"/>
<feGaussianBlur stdDeviation="4" result="effect1_foregroundBlur_2374:23854"/>
</filter>
<filter id="filter1_f_2374:23854" x="276.926" y="781.186" width="27.8125" height="27.8137" filterUnits="userSpaceOnUse" color-interpolation-filters="sRGB">
<feFlood flood-opacity="0" result="BackgroundImageFix"/>
<feBlend mode="normal" in="SourceGraphic" in2="BackgroundImageFix" result="shape"/>
<feGaussianBlur stdDeviation="4" result="effect1_foregroundBlur_2374:23854"/>
</filter>
<filter id="filter2_f_2374:23854" x="1273.85" y="738.45" width="29.0342" height="29.0343" filterUnits="userSpaceOnUse" color-interpolation-filters="sRGB">
<feFlood flood-opacity="0" result="BackgroundImageFix"/>
<feBlend mode="normal" in="SourceGraphic" in2="BackgroundImageFix" result="shape"/>
<feGaussianBlur stdDeviation="4.17555" result="effect1_foregroundBlur_2374:23854"/>
</filter>
<filter id="filter3_f_2374:23854" x="1043.48" y="473.68" width="24.9249" height="24.9236" filterUnits="userSpaceOnUse" color-interpolation-filters="sRGB">
<feFlood flood-opacity="0" result="BackgroundImageFix"/>
<feBlend mode="normal" in="SourceGraphic" in2="BackgroundImageFix" result="shape"/>
<feGaussianBlur stdDeviation="4.17555" result="effect1_foregroundBlur_2374:23854"/>
</filter>
<filter id="filter4_f_2374:23854" x="1167.52" y="238.391" width="29.0342" height="29.0343" filterUnits="userSpaceOnUse" color-interpolation-filters="sRGB">
<feFlood flood-opacity="0" result="BackgroundImageFix"/>
<feBlend mode="normal" in="SourceGraphic" in2="BackgroundImageFix" result="shape"/>
<feGaussianBlur stdDeviation="4.17555" result="effect1_foregroundBlur_2374:23854"/>
</filter>
<filter id="filter5_f_2374:23854" x="918.521" y="192.626" width="10.0049" height="10.004" filterUnits="userSpaceOnUse" color-interpolation-filters="sRGB">
<feFlood flood-opacity="0" result="BackgroundImageFix"/>
<feBlend mode="normal" in="SourceGraphic" in2="BackgroundImageFix" result="shape"/>
<feGaussianBlur stdDeviation="1.43872" result="effect1_foregroundBlur_2374:23854"/>
</filter>
<filter id="filter6_f_2374:23854" x="851.595" y="348.073" width="10.0049" height="10.004" filterUnits="userSpaceOnUse" color-interpolation-filters="sRGB">
<feFlood flood-opacity="0" result="BackgroundImageFix"/>
<feBlend mode="normal" in="SourceGraphic" in2="BackgroundImageFix" result="shape"/>
<feGaussianBlur stdDeviation="1.43872" result="effect1_foregroundBlur_2374:23854"/>
</filter>
<filter id="filter7_f_2374:23854" x="492.586" y="332.702" width="10.4449" height="10.443" filterUnits="userSpaceOnUse" color-interpolation-filters="sRGB">
<feFlood flood-opacity="0" result="BackgroundImageFix"/>
<feBlend mode="normal" in="SourceGraphic" in2="BackgroundImageFix" result="shape"/>
<feGaussianBlur stdDeviation="1.50186" result="effect1_foregroundBlur_2374:23854"/>
</filter>
<filter id="filter8_f_2374:23854" x="576.926" y="237.469" width="8.96446" height="8.96452" filterUnits="userSpaceOnUse" color-interpolation-filters="sRGB">
<feFlood flood-opacity="0" result="BackgroundImageFix"/>
<feBlend mode="normal" in="SourceGraphic" in2="BackgroundImageFix" result="shape"/>
<feGaussianBlur stdDeviation="1.50186" result="effect1_foregroundBlur_2374:23854"/>
</filter>
<filter id="filter9_f_2374:23854" x="530.828" y="152.841" width="10.4449" height="10.443" filterUnits="userSpaceOnUse" color-interpolation-filters="sRGB">
<feFlood flood-opacity="0" result="BackgroundImageFix"/>
<feBlend mode="normal" in="SourceGraphic" in2="BackgroundImageFix" result="shape"/>
<feGaussianBlur stdDeviation="1.50186" result="effect1_foregroundBlur_2374:23854"/>
</filter>
<filter id="filter10_f_2374:23854" x="570.725" y="91.7318" width="9.65173" height="9.65454" filterUnits="userSpaceOnUse" color-interpolation-filters="sRGB">
<feFlood flood-opacity="0" result="BackgroundImageFix"/>
<feBlend mode="normal" in="SourceGraphic" in2="BackgroundImageFix" result="shape"/>
<feGaussianBlur stdDeviation="1.18246" result="effect1_foregroundBlur_2374:23854"/>
</filter>
<filter id="filter11_f_2374:23854" x="529.217" y="224.493" width="9.65173" height="9.65454" filterUnits="userSpaceOnUse" color-interpolation-filters="sRGB">
<feFlood flood-opacity="0" result="BackgroundImageFix"/>
<feBlend mode="normal" in="SourceGraphic" in2="BackgroundImageFix" result="shape"/>
<feGaussianBlur stdDeviation="1.18246" result="effect1_foregroundBlur_2374:23854"/>
</filter>
<filter id="filter12_f_2374:23854" x="760.844" y="406.948" width="10.0781" height="10.0782" filterUnits="userSpaceOnUse" color-interpolation-filters="sRGB">
<feFlood flood-opacity="0" result="BackgroundImageFix"/>
<feBlend mode="normal" in="SourceGraphic" in2="BackgroundImageFix" result="shape"/>
<feGaussianBlur stdDeviation="1.23436" result="effect1_foregroundBlur_2374:23854"/>
</filter>
<filter id="filter13_f_2374:23854" x="760.961" y="303.2" width="8.36322" height="8.36462" filterUnits="userSpaceOnUse" color-interpolation-filters="sRGB">
<feFlood flood-opacity="0" result="BackgroundImageFix"/>
<feBlend mode="normal" in="SourceGraphic" in2="BackgroundImageFix" result="shape"/>
<feGaussianBlur stdDeviation="1.23436" result="effect1_foregroundBlur_2374:23854"/>
</filter>
<filter id="filter14_f_2374:23854" x="833.305" y="274.32" width="10.0781" height="10.0782" filterUnits="userSpaceOnUse" color-interpolation-filters="sRGB">
<feFlood flood-opacity="0" result="BackgroundImageFix"/>
<feBlend mode="normal" in="SourceGraphic" in2="BackgroundImageFix" result="shape"/>
<feGaussianBlur stdDeviation="1.23436" result="effect1_foregroundBlur_2374:23854"/>
</filter>
<linearGradient id="paint0_linear_2374:23854" x1="311.5" y1="729.5" x2="1016.5" y2="301" gradientUnits="userSpaceOnUse">
<stop stop-color="#FFF2F0"/>
<stop offset="0.529571" stop-color="white"/>
<stop offset="1" stop-color="#F2F0FF"/>
</linearGradient>
</defs>
</svg>
