<svg width="40" height="40" viewBox="0 0 40 40" fill="none" xmlns="http://www.w3.org/2000/svg">
<path d="M27.6329 20.18L19.5479 26.66C19.2576 26.8929 18.8912 27.0095 18.5197 26.9873C18.1483 26.9651 17.7984 26.8057 17.5379 26.54L13.4429 22.4449C13.1835 22.1833 13.0293 21.8354 13.0099 21.4675C12.9905 21.0996 13.1073 20.7374 13.3378 20.45L19.8029 12.3499C21.267 10.523 23.1231 9.04869 25.234 8.03607C27.3449 7.02346 29.6567 6.4985 31.9979 6.5V6.5C32.3958 6.5 32.7772 6.65797 33.0585 6.93927C33.3398 7.22058 33.4979 7.60218 33.4979 8C33.4965 10.3401 32.9685 12.6498 31.9532 14.7582C30.938 16.8666 29.4614 18.7197 27.6329 20.18V20.18Z" stroke="#77587C" stroke-width="2" stroke-linecap="round" stroke-linejoin="round"/>
<path d="M26 21.5V28.0699C25.9978 28.3485 25.918 28.621 25.7697 28.8568C25.6213 29.0926 25.4101 29.2824 25.1599 29.4049L21.5449 31.22C21.3522 31.3171 21.1409 31.3715 20.9252 31.3795C20.7096 31.3876 20.4949 31.349 20.2955 31.2664C20.0962 31.1838 19.917 31.0592 19.7702 30.901C19.6234 30.7428 19.5125 30.5549 19.445 30.3499L18.5 27.5" stroke="#77587C" stroke-width="2" stroke-linecap="round" stroke-linejoin="round"/>
<path d="M12.4972 21.5L9.6322 20.54C9.42726 20.4725 9.2392 20.3615 9.08105 20.2147C8.9229 20.0679 8.79834 19.8887 8.71576 19.6894C8.63317 19.4901 8.59459 19.2752 8.6026 19.0596C8.61061 18.844 8.66512 18.6326 8.76226 18.44L10.5772 14.825C10.703 14.5754 10.896 14.3658 11.1346 14.22C11.3731 14.0743 11.6477 13.9981 11.9272 14H18.4972" stroke="#77587C" stroke-width="2" stroke-linecap="round" stroke-linejoin="round"/>
<path d="M10.625 32.8699L6.5 33.5L7.11487 29.375C7.19916 28.7162 7.4998 28.104 7.96942 27.6344C8.43904 27.1648 9.05106 26.8642 9.70984 26.7799C10.1896 26.6908 10.6841 26.7201 11.15 26.8652C11.6159 27.0104 12.0392 27.2669 12.3835 27.6127C12.7279 27.9585 12.9827 28.3831 13.1259 28.8497C13.269 29.3162 13.2961 29.8106 13.205 30.29C13.1183 30.9438 12.8186 31.5509 12.3522 32.0173C11.8859 32.4837 11.2788 32.7833 10.625 32.8699V32.8699Z" stroke="#77587C" stroke-width="2" stroke-linecap="round" stroke-linejoin="round"/>
</svg>
