<svg width="40" height="40" viewBox="0 0 40 40" fill="none" xmlns="http://www.w3.org/2000/svg">
<path d="M23.086 25.7002V32.1124C23.0839 32.3937 23.1377 32.6731 23.2444 32.9334C23.3511 33.1937 23.5085 33.4296 23.7074 33.6285C23.9063 33.8274 24.1427 33.9849 24.403 34.0916C24.6633 34.1982 24.9422 34.2521 25.2235 34.25H32.3485C32.9154 34.25 33.459 34.0247 33.8599 33.6238C34.2608 33.223 34.4859 32.6793 34.4859 32.1124V25.7791" stroke="white" stroke-width="2" stroke-linecap="round" stroke-linejoin="round"/>
<path d="M35.8321 26.8243L29.5937 21.837C29.338 21.6379 29.0233 21.53 28.6992 21.53C28.3752 21.53 28.0603 21.6379 27.8045 21.837L21.582 26.8243" stroke="white" stroke-width="2" stroke-linecap="round" stroke-linejoin="round"/>
<path d="M13.668 22.375H18.418" stroke="white" stroke-width="2" stroke-linecap="round" stroke-linejoin="round"/>
<path d="M13.668 27.9167H15.2513" stroke="white" stroke-width="2" stroke-linecap="round" stroke-linejoin="round"/>
<path d="M26.3346 12.0833L21.5846 16.8333L17.2938 13.6666L13.668 16.8333" stroke="white" stroke-width="2" stroke-linecap="round" stroke-linejoin="round"/>
<path d="M26.3346 15.2499V12.0833H23.168" stroke="white" stroke-width="2" stroke-linecap="round" stroke-linejoin="round"/>
<path d="M18.4154 34.25H10.4987C9.65885 34.25 8.85344 33.9161 8.25957 33.3223C7.66571 32.7284 7.33203 31.9232 7.33203 31.0833V8.91667C7.33203 8.07681 7.66571 7.2716 8.25957 6.67773C8.85344 6.08387 9.65885 5.75 10.4987 5.75H29.4988C30.3386 5.75 31.1441 6.08387 31.7379 6.67773C32.3318 7.2716 32.6655 8.07681 32.6655 8.91667V18.4167" stroke="white" stroke-width="2" stroke-linecap="round" stroke-linejoin="round"/>
</svg>
